<mxfile host="app.diagrams.net" agent="Mozilla/5.0 (Windows NT 10.0; Win64; x64) AppleWebKit/537.36 (KHTML, like Gecko) Chrome/129.0.0.0 Safari/537.36" version="24.7.17">
  <diagram id="C5RBs43oDa-KdzZeNtuy" name="Page-1">
    <mxGraphModel dx="880" dy="468" grid="1" gridSize="10" guides="1" tooltips="1" connect="1" arrows="1" fold="1" page="1" pageScale="1" pageWidth="827" pageHeight="1169" math="0" shadow="0">
      <root>
        <mxCell id="WIyWlLk6GJQsqaUBKTNV-0" />
        <mxCell id="WIyWlLk6GJQsqaUBKTNV-1" parent="WIyWlLk6GJQsqaUBKTNV-0" />
        <mxCell id="6hWtV3WVLChgWLDd__p5-0" value="Joblink Website&amp;nbsp;" style="ellipse;whiteSpace=wrap;html=1;aspect=fixed;" parent="WIyWlLk6GJQsqaUBKTNV-1" vertex="1">
          <mxGeometry x="350" y="220" width="110" height="110" as="geometry" />
        </mxCell>
        <mxCell id="6hWtV3WVLChgWLDd__p5-2" value="Job_Seeker" style="whiteSpace=wrap;html=1;aspect=fixed;" parent="WIyWlLk6GJQsqaUBKTNV-1" vertex="1">
          <mxGeometry x="90" y="215" width="110" height="110" as="geometry" />
        </mxCell>
        <mxCell id="6hWtV3WVLChgWLDd__p5-3" value="Admin" style="whiteSpace=wrap;html=1;aspect=fixed;" parent="WIyWlLk6GJQsqaUBKTNV-1" vertex="1">
          <mxGeometry x="620" y="215" width="100" height="100" as="geometry" />
        </mxCell>
        <mxCell id="6hWtV3WVLChgWLDd__p5-4" value="Employeers" style="whiteSpace=wrap;html=1;aspect=fixed;" parent="WIyWlLk6GJQsqaUBKTNV-1" vertex="1">
          <mxGeometry x="360" y="50" width="90" height="90" as="geometry" />
        </mxCell>
        <mxCell id="6hWtV3WVLChgWLDd__p5-5" value="" style="endArrow=classic;html=1;rounded=0;exitX=0.991;exitY=0.618;exitDx=0;exitDy=0;exitPerimeter=0;entryX=-0.009;entryY=0.564;entryDx=0;entryDy=0;entryPerimeter=0;" parent="WIyWlLk6GJQsqaUBKTNV-1" source="6hWtV3WVLChgWLDd__p5-2" target="6hWtV3WVLChgWLDd__p5-0" edge="1">
          <mxGeometry width="50" height="50" relative="1" as="geometry">
            <mxPoint x="210" y="290" as="sourcePoint" />
            <mxPoint x="340" y="280" as="targetPoint" />
          </mxGeometry>
        </mxCell>
        <mxCell id="6hWtV3WVLChgWLDd__p5-21" value="Resume" style="edgeLabel;html=1;align=center;verticalAlign=middle;resizable=0;points=[];" parent="6hWtV3WVLChgWLDd__p5-5" vertex="1" connectable="0">
          <mxGeometry x="-0.0072" relative="1" as="geometry">
            <mxPoint y="-15" as="offset" />
          </mxGeometry>
        </mxCell>
        <mxCell id="6hWtV3WVLChgWLDd__p5-19" value="J" style="endArrow=classic;html=1;rounded=0;exitX=0.5;exitY=1;exitDx=0;exitDy=0;entryX=0.5;entryY=0;entryDx=0;entryDy=0;" parent="WIyWlLk6GJQsqaUBKTNV-1" source="6hWtV3WVLChgWLDd__p5-4" target="6hWtV3WVLChgWLDd__p5-0" edge="1">
          <mxGeometry relative="1" as="geometry">
            <mxPoint x="360" y="250" as="sourcePoint" />
            <mxPoint x="460" y="250" as="targetPoint" />
            <Array as="points" />
          </mxGeometry>
        </mxCell>
        <mxCell id="6hWtV3WVLChgWLDd__p5-20" value="Job Post&amp;nbsp;" style="edgeLabel;resizable=0;html=1;;align=center;verticalAlign=middle;" parent="6hWtV3WVLChgWLDd__p5-19" connectable="0" vertex="1">
          <mxGeometry relative="1" as="geometry" />
        </mxCell>
        <mxCell id="6hWtV3WVLChgWLDd__p5-23" value="" style="endArrow=classic;html=1;rounded=0;exitX=0;exitY=0.5;exitDx=0;exitDy=0;" parent="WIyWlLk6GJQsqaUBKTNV-1" source="6hWtV3WVLChgWLDd__p5-3" edge="1">
          <mxGeometry width="50" height="50" relative="1" as="geometry">
            <mxPoint x="610" y="260" as="sourcePoint" />
            <mxPoint x="463" y="265" as="targetPoint" />
          </mxGeometry>
        </mxCell>
        <mxCell id="6hWtV3WVLChgWLDd__p5-24" value="Control" style="text;html=1;align=center;verticalAlign=middle;resizable=0;points=[];autosize=1;strokeColor=none;fillColor=none;" parent="WIyWlLk6GJQsqaUBKTNV-1" vertex="1">
          <mxGeometry x="500" y="228" width="60" height="30" as="geometry" />
        </mxCell>
        <mxCell id="6hWtV3WVLChgWLDd__p5-25" value="" style="endArrow=classic;html=1;rounded=0;entryX=0.75;entryY=1;entryDx=0;entryDy=0;exitX=0.7;exitY=0.073;exitDx=0;exitDy=0;exitPerimeter=0;" parent="WIyWlLk6GJQsqaUBKTNV-1" source="6hWtV3WVLChgWLDd__p5-0" target="6hWtV3WVLChgWLDd__p5-4" edge="1">
          <mxGeometry width="50" height="50" relative="1" as="geometry">
            <mxPoint x="390" y="270" as="sourcePoint" />
            <mxPoint x="440" y="220" as="targetPoint" />
          </mxGeometry>
        </mxCell>
        <mxCell id="6hWtV3WVLChgWLDd__p5-26" value="Applications" style="text;html=1;align=center;verticalAlign=middle;resizable=0;points=[];autosize=1;strokeColor=none;fillColor=none;" parent="WIyWlLk6GJQsqaUBKTNV-1" vertex="1">
          <mxGeometry x="420" y="168" width="90" height="30" as="geometry" />
        </mxCell>
        <mxCell id="6hWtV3WVLChgWLDd__p5-29" value="" style="endArrow=classic;html=1;rounded=0;entryX=1;entryY=0.75;entryDx=0;entryDy=0;exitX=0.027;exitY=0.691;exitDx=0;exitDy=0;exitPerimeter=0;" parent="WIyWlLk6GJQsqaUBKTNV-1" source="6hWtV3WVLChgWLDd__p5-0" target="6hWtV3WVLChgWLDd__p5-2" edge="1">
          <mxGeometry width="50" height="50" relative="1" as="geometry">
            <mxPoint x="390" y="270" as="sourcePoint" />
            <mxPoint x="440" y="220" as="targetPoint" />
          </mxGeometry>
        </mxCell>
        <mxCell id="6hWtV3WVLChgWLDd__p5-30" value="Filtered&amp;nbsp;&lt;div&gt;Job Post&lt;/div&gt;" style="text;html=1;align=center;verticalAlign=middle;resizable=0;points=[];autosize=1;strokeColor=none;fillColor=none;" parent="WIyWlLk6GJQsqaUBKTNV-1" vertex="1">
          <mxGeometry x="245" y="303" width="70" height="40" as="geometry" />
        </mxCell>
        <mxCell id="6hWtV3WVLChgWLDd__p5-33" value="" style="endArrow=classic;html=1;rounded=0;exitX=0.982;exitY=0.691;exitDx=0;exitDy=0;exitPerimeter=0;entryX=0.04;entryY=0.82;entryDx=0;entryDy=0;entryPerimeter=0;" parent="WIyWlLk6GJQsqaUBKTNV-1" source="6hWtV3WVLChgWLDd__p5-0" target="6hWtV3WVLChgWLDd__p5-3" edge="1">
          <mxGeometry width="50" height="50" relative="1" as="geometry">
            <mxPoint x="390" y="270" as="sourcePoint" />
            <mxPoint x="610" y="300" as="targetPoint" />
          </mxGeometry>
        </mxCell>
        <mxCell id="6hWtV3WVLChgWLDd__p5-34" value="Notification" style="text;html=1;align=center;verticalAlign=middle;resizable=0;points=[];autosize=1;strokeColor=none;fillColor=none;" parent="WIyWlLk6GJQsqaUBKTNV-1" vertex="1">
          <mxGeometry x="490" y="300" width="80" height="30" as="geometry" />
        </mxCell>
        <mxCell id="mplL4_W_EzSHX8kPJUNT-0" value="1.1" style="text;html=1;align=center;verticalAlign=middle;resizable=0;points=[];autosize=1;strokeColor=none;fillColor=none;" vertex="1" parent="WIyWlLk6GJQsqaUBKTNV-1">
          <mxGeometry x="380" y="228" width="40" height="30" as="geometry" />
        </mxCell>
      </root>
    </mxGraphModel>
  </diagram>
</mxfile>
